# xmcd CD database file
#
# Track frame offsets:
#	150
#	13552
#	31385
#	42865
#	51949
#	68026
#	83769
#
# Disc length: 1287 seconds
#
# Revision: 0
# Processed by: cddbd v1.5.2PL0 Copyright (c) Steve Scherf et al.
# Submitted via: CDex 1.70beta2
#
DISCID=4f050507
DTITLE=Sun Ra  - 1953 - 1960 Sun Ra a Chicago: les premiers rayons - jazz mag collection
DYEAR=2011
DGENRE=Jazz
TTITLE0=Saturn
TTITLE1=Deep purple
TTITLE2=Watusa
TTITLE3=Advise to medics
TTITLE4=Two tones
TTITLE5=I love you, Porgy
TTITLE6=Future
EXTD=YEAR: 2011
EXTT0=
EXTT1=
EXTT2=
EXTT3=
EXTT4=
EXTT5=
EXTT6=
PLAYORDER=
